<?xml version="1.0" standalone="no"?><!DOCTYPE svg PUBLIC "-//W3C//DTD SVG 1.1//EN" "http://www.w3.org/Graphics/SVG/1.1/DTD/svg11.dtd"><svg t="1608807499555" class="icon" viewBox="0 0 1024 1024" version="1.1" xmlns="http://www.w3.org/2000/svg" p-id="3058" xmlns:xlink="http://www.w3.org/1999/xlink" width="200" height="200"><defs><style type="text/css"></style></defs><path d="M64 512c0-38.4 6.4-76.8 12.8-115.2 51.2 0 96-25.6 121.6-70.4s25.6-102.4-6.4-147.2C249.6 128 320 83.2 390.4 64c25.6 44.8 70.4 76.8 121.6 76.8S608 108.8 633.6 64c70.4 19.2 140.8 64 192 115.2-25.6 44.8-32 102.4-6.4 147.2s70.4 70.4 121.6 70.4c12.8 38.4 19.2 76.8 19.2 115.2s-6.4 76.8-12.8 115.2c-51.2 0-96 25.6-121.6 70.4-25.6 44.8-25.6 102.4 6.4 147.2-51.2 57.6-121.6 96-192 115.2-25.6-44.8-70.4-76.8-121.6-76.8s-102.4 32-128 76.8c-70.4-19.2-140.8-64-192-115.2 25.6-44.8 32-102.4 6.4-147.2S128 627.2 76.8 627.2C70.4 588.8 64 550.4 64 512z m217.6 140.8c25.6 51.2 38.4 108.8 25.6 166.4 19.2 12.8 38.4 25.6 57.6 32 38.4-38.4 96-57.6 147.2-57.6 57.6 0 108.8 19.2 147.2 57.6 19.2-12.8 38.4-19.2 57.6-32-12.8-57.6 0-115.2 25.6-166.4s70.4-89.6 121.6-102.4V480c-51.2-19.2-96-57.6-121.6-102.4-25.6-51.2-38.4-108.8-25.6-166.4-19.2-12.8-38.4-25.6-57.6-32-38.4 32-89.6 51.2-147.2 51.2-57.6 0-108.8-19.2-147.2-57.6-25.6 12.8-44.8 25.6-57.6 38.4 12.8 57.6 0 115.2-25.6 166.4-32 44.8-76.8 83.2-128 102.4v70.4c51.2 12.8 96 51.2 128 102.4z m230.4 0c-76.8 0-134.4-64-134.4-140.8S435.2 371.2 512 371.2s134.4 64 134.4 140.8-57.6 140.8-134.4 140.8z m0-96c25.6 0 44.8-19.2 44.8-44.8 0-25.6-19.2-44.8-44.8-44.8s-44.8 19.2-44.8 44.8c0 25.6 19.2 44.8 44.8 44.8z" p-id="3059"></path></svg>