<?xml version="1.0" standalone="no"?><!DOCTYPE svg PUBLIC "-//W3C//DTD SVG 1.1//EN" "http://www.w3.org/Graphics/SVG/1.1/DTD/svg11.dtd"><svg t="1608807442254" class="icon" viewBox="0 0 1024 1024" version="1.1" xmlns="http://www.w3.org/2000/svg" p-id="2932" xmlns:xlink="http://www.w3.org/1999/xlink" width="200" height="200"><defs><style type="text/css"></style></defs><path d="M802.133333 85.333333c21.333333 0 42.666667 17.066667 42.666667 42.666667v162.133333l-85.333333 85.333334V170.666667H170.666667v682.666666h593.066666v-119.466666l85.333334-85.333334V896c0 25.6-17.066667 42.666667-42.666667 42.666667H128c-21.333333 0-42.666667-17.066667-42.666667-42.666667V128c0-25.6 17.066667-42.666667 42.666667-42.666667h674.133333z m76.8 290.133334l59.733334 59.733333-328.533334 332.8h-59.733333v-59.733333l328.533333-332.8zM507.733333 512v85.333333H298.666667v-85.333333h209.066666z m128-170.666667v85.333334H298.666667V341.333333h337.066666z" p-id="2933"></path></svg>